# AST/ASF file generated using VICON BodyLanguage
# -----------------------------------------------
:version 1.10
:name VICON
:units
  mass 1.0
  length 0.45
  angle deg
:documentation
   .ast/.asf automatically generated from VICON data using
   VICON BodyBuilder and BodyLanguage model FoxedUp or BRILLIANT.MOD
:root
   order TX TY TZ RX RY RZ
   axis XYZ
   position 0 0 0  
   orientation 0 0 0 
:bonedata
  begin
     id 1 
     name lhipjoint
     direction 0.711131 -0.61297 0.344326 
     length 2.29162 
     axis 0 0 0  XYZ
  end
  begin
     id 2 
     name lfemur
     direction 0.34202 -0.939693 0  
     length 6.71424  
     axis 0 0 20  XYZ
    dof rx ry rz
    limits (-160.0 20.0)
           (-70.0 70.0)
           (-60.0 70.0)
  end
  begin
     id 3 
     name ltibia
     direction 0.34202 -0.939693 0   
     length 6.7087   
     axis 0 0 20   XYZ
    dof rx
    limits (-10.0 170.0)
  end
  begin
     id 4 
     name lfoot
     direction 0.0230374 -0.0632947 0.997729   
     length 1.56743   
     axis -90 7.62852e-016 20   XYZ
    dof rx rz
    limits (-45.0 90.0)
           (-70.0 20.0)
  end
  begin
     id 5 
     name ltoes
     direction 1.53585e-011 -4.21885e-011 1   
     length 0.802914   
     axis -90 7.62852e-016 20   XYZ
    dof rx
    limits (-90.0 20.0)
  end
  begin
     id 6 
     name rhipjoint
     direction -0.733192 -0.592884 0.333043   
     length 2.36925  
     axis 0 0 0  XYZ 
  end
  begin
     id 7 
     name rfemur
     direction -0.34202 -0.939693 0   
     length 6.67027   
     axis 0 0 -20   XYZ
    dof rx ry rz
    limits (-160.0 20.0)
           (-70.0 70.0)
           (-70.0 60.0)
  end
  begin
     id 8 
     name rtibia
     direction -0.34202 -0.939693 0   
     length 6.6862   
     axis 0 0 -20   XYZ
    dof rx
    limits (-10.0 170.0)
 end
 begin
     id 9 
     name rfoot
     direction -0.0949739 -0.260939 0.960672   
     length 1.67698  
     axis -90 -7.62852e-016 -20   XYZ
    dof rx rz
    limits (-45.0 90.0)
           (-20.0 70.0)
  end
  begin
     id 10 
     name rtoes
     direction -1.5353e-011 -4.21868e-011 1   
     length 0.846298   
     axis -90 -7.62852e-016 -20   XYZ
    dof rx
    limits (-90.0 20.0)
  end
  begin
     id 11 
     name lowerback
     direction -0.0206828 0.999785 -0.00109866   
     length 2.04382   
     axis 0 0 0   XYZ
    dof rx ry rz
    limits (-20.0 45.0)
           (-30.0 30.0)
           (-30.0 30.0)
  end
  begin
     id 12 
     name upperback
     direction -0.0105003 0.999727 -0.0208904   
     length 2.04538   
     axis 0 0 0   XYZ
    dof rx ry rz
    limits (-20.0 45.0)
           (-30.0 30.0)
           (-30.0 30.0)
  end
  begin
     id 13 
     name thorax
     direction -0.000416255 0.999808 -0.0196023   
     length 2.0399   
     axis 0 0 0   XYZ
    dof rx ry rz
    limits (-20.0 45.0)
           (-30.0 30.0)
           (-30.0 30.0)
  end
  begin
     id 14 
     name lowerneck
     direction 0.0627861 0.989205 0.13241   
     length 1.46207   
     axis 0 0 0   XYZ
    dof rx ry rz
    limits (-20.0 45.0)
           (-30.0 30.0)
           (-30.0 30.0)
  end
  begin
     id 15 
     name upperneck
     direction 0.00627179 0.994526 0.104303   
     length 1.41419   
     axis 0 0 0   XYZ
    dof rx ry rz
    limits (-20.0 45.0)
           (-30.0 30.0)
           (-30.0 30.0)
  end
  begin
     id 16
     name head
     direction -0.00443838 0.999688 0.0245968  
     length 1.50718  
     axis 0 0 0   XYZ
    dof rx ry rz
    limits (-20.0 45.0)
           (-30.0 30.0)
           (-30.0 30.0)
  end
  begin
     id 17 
     name lclavicle
     direction 0.758742 0.650995 -0.0227258  
     length 2.86888  
     axis 0 0 0   XYZ
    dof ry rz
    limits (-20.0 10.0)
           (0.0 20.0)
  end
  begin
     id 18 
     name lhumerus
     direction 1 -4.48962e-011 1.06664e-027   
     length 4.65776   
     axis -180 -30 -90   XYZ
    dof rx ry rz
    limits (-60.0 90.0)
           (-90.0 90.0)
           (-90.0 90.0)
  end
  begin
     id 19
     name lradius
     direction 1 -4.48968e-011 1.40404e-026   
     length 3.55539   
     axis -180 -30 -90   XYZ
    dof rx
    limits (-10.0 170.0)
  end
  begin
     id 20
     name lwrist
     direction 1 -4.48976e-011 3.32647e-026   
     length 1.77769   
     axis -2.20186e-014 90 90   XYZ
    dof ry
    limits (-180.0 0.0)
 end
  begin
     id 21 
     name lhand
     direction 1 -4.48982e-011 6.65293e-026   
     length 0.707264   
     axis -4.24514e-014 90 90   XYZ
    dof rx rz
    limits (-90.0 90.0)
           (-45.0 45.0)
  end
  begin
     id 22 
     name lfingers
     direction 1 -4.48966e-011 1.33059e-025   
     length 0.570215   
     axis -8.49028e-014 90 90   XYZ
    dof rx
    limits (0.0 90.0)
  end
  begin
     id 23
     name lthumb
     direction 0.707107 -6.3493e-011 0.707107   
     length 0.818718   
     axis -90 45 2.85299e-015   XYZ
    dof rx rz
    limits (-45.0 45.0)
           (-45.0 45.0)
  end
  begin
     id 24 
     name rclavicle
     direction -0.870343 0.482028 -0.100759   
     length 3.2251  
     axis 0 0 0   XYZ 
    dof ry rz
    limits (-10.0 20.0)
           (-20.0 0.0)
  end
  begin
     id 25 
     name rhumerus
     direction -1 -4.48974e-011 -9.45849e-028  
     length 4.71925   
     axis -180 30 90   XYZ
    dof rx ry rz
    limits (-90.0 60.0)
           (-90.0 90.0)
           (-90.0 90.0)
  end
  begin
     id 26 
     name rradius
     direction -1 -4.48965e-011 1.17607e-026   
     length 3.5699   
     axis -180 30 90   XYZ
    dof rx
    limits (-10.0 170.0)
  end
  begin
     id 27 
     name rwrist
     direction -1 -4.48968e-011 3.32647e-026   
     length 1.78495   
     axis -2.20186e-014 -90 -90   XYZ
    dof ry
    limits (-180.0 0.0)
  end
  begin
     id 28
     name rhand
     direction -1 -4.48995e-011 6.65293e-026   
     length 0.507757   
     axis -4.24514e-014 -90 -90   XYZ
    dof rx rz
    limits (-90.0 90.0)
           (-45.0 45.0)
  end
  begin
     id 29
     name rfingers
     direction -1 -4.48864e-011 1.33059e-025   
     length 0.409367   
     axis -8.49028e-014 -90 -90   XYZ
    dof rx
    limits (0.0 90.0)
  end
  begin
     id 30
     name rthumb
     direction -0.707107 -6.3494e-011 0.707107   
     length 0.587771   
     axis -90 -45 -2.85299e-015   XYZ
    dof rx rz
    limits (-45.0 45.0)
           (-45.0 45.0)
  end
:hierarchy
  begin
    root lhipjoint rhipjoint lowerback
    lhipjoint lfemur
    lfemur ltibia
    ltibia lfoot
    lfoot ltoes
    rhipjoint rfemur
    rfemur rtibia
    rtibia rfoot
    rfoot rtoes
    lowerback upperback
    upperback thorax
    thorax lowerneck lclavicle rclavicle
    lowerneck upperneck
    upperneck head
    lclavicle lhumerus
    lhumerus lradius
    lradius lwrist
    lwrist lhand lthumb
    lhand lfingers
    rclavicle rhumerus
    rhumerus rradius
    rradius rwrist
    rwrist rhand rthumb
    rhand rfingers
  end

#!OML:ASF E:\Steps\Project 1\Capture day 1\Session 2\Subject.ASF
:FULLY-SPECIFIED
:DEGREES
33
root 16.6234 19.6837 20.7435 -153.129 -3.8903 177.416
lowerback -30.4001 -2.12907 -7.13578
upperback -1.41814 -1.03368 -0.0140127
thorax 14.4532 -1.21277 3.36752
lowerneck -5.54277 -0.873512 -1.06504
upperneck 2.49273 -1.19229 2.31006
head 1.7439 -0.557288 0.868504
rclavicle 2.85753e-015 3.37934e-015
rhumerus -38.1446 -21.2418 -75.9731
rradius 31.7853
rwrist -1.64634
rhand -7.94409 -53.2215
rfingers 7.12502
rthumb 17.9626 -82.412
lclavicle 2.85753e-015 3.37934e-015
lhumerus -31.93 4.64047 80.3692
lradius 24.4753
lwrist -3.5631
lhand -20.8153 -12.1374
lfingers 7.12502
lthumb 5.5527 17.7699
rfemur -22.9627 5.04367 19.9994
rtibia 5.45274
rfoot -17.5423 -4.0893
rtoes -21.5717
lfemur -24.87 -7.87661 -21.9469
ltibia 8.58373
lfoot -7.11036 1.60814
ltoes -30.615
34
root 16.6237 19.683 20.7443 -153.13 -3.90088 177.457
lowerback -30.4463 -2.09033 -7.04784
upperback -1.42023 -1.00638 -0.0547902
thorax 14.4671 -1.19522 3.28538
lowerneck -5.5684 -0.825797 -0.9549
upperneck 2.47682 -1.13363 2.23808
head 1.74036 -0.528601 0.828623
rclavicle -1.1455e-014 -1.19271e-014
rhumerus -38.1917 -21.1321 -76.0993
rradius 31.9111
rwrist -1.81961
rhand -7.73602 -52.2387
rfingers 7.12502
rthumb 18.1628 -81.4107
lclavicle -1.1455e-014 -1.19271e-014
lhumerus -31.878 4.54203 80.35
lradius 24.4644
lwrist -3.50244
lhand -20.7729 -11.8309
lfingers 7.12502
lthumb 5.59366 18.0753
rfemur -22.9792 5.22747 20.002
rtibia 5.4904
rfoot -18.774 -4.20667
rtoes -19.3593
lfemur -24.8657 -7.92076 -21.8876
ltibia 8.5624
lfoot -7.52698 1.65994
ltoes -35.602
35
root 16.6246 19.6826 20.7464 -153.156 -3.91126 177.455
lowerback -30.3612 -2.10083 -7.10493
upperback -1.45497 -1.01648 -0.0120757
thorax 14.3909 -1.20221 3.36067
lowerneck -5.54813 -0.855129 -1.01994
upperneck 2.51754 -1.16991 2.27687
head 1.75166 -0.546195 0.85104
rclavicle 5.36719e-015 -7.35503e-015
rhumerus -38.2471 -21.0481 -76.0275
rradius 31.9293
rwrist -1.9292
rhand -7.81635 -51.864
rfingers 7.12502
rthumb 18.0855 -81.0432
lclavicle 5.36719e-015 -7.35503e-015
lhumerus -31.9397 4.59612 80.4173
lradius 24.549
lwrist -3.53491
lhand -20.773 -11.6624
lfingers 7.12502
lthumb 5.59354 18.2438
rfemur -22.9679 5.33469 19.9918
rtibia 5.5422
rfoot -18.4895 -4.36079
rtoes -20.934
lfemur -24.8509 -7.91449 -21.8938
ltibia 8.58438
lfoot -7.07087 1.6228
ltoes -31.3251
36
root 16.6256 19.6821 20.7484 -153.158 -3.93607 177.519
lowerback -30.3759 -2.09037 -7.03889
upperback -1.43658 -1.02187 -0.000708372
thorax 14.4201 -1.20061 3.33532
lowerneck -5.55921 -0.882042 -0.984756
upperneck 2.46854 -1.20895 2.2924
head 1.73827 -0.565485 0.848491
rclavicle 5.91384e-015 1.03368e-014
rhumerus -38.1961 -21.1576 -76.0062
rradius 31.878
rwrist -1.85599
rhand -7.93277 -51.5367
rfingers 7.12502
rthumb 17.9735 -80.7262
lclavicle 5.91384e-015 1.03368e-014
lhumerus -31.9417 4.54625 80.4246
lradius 24.6544
lwrist -3.51125
lhand -20.8261 -11.6719
lfingers 7.12502
lthumb 5.54228 18.2356
rfemur -22.9705 5.24386 20.1108
rtibia 5.54623
rfoot -17.6614 -4.28581
rtoes -21.7016
lfemur -24.8929 -7.83414 -21.8342
ltibia 8.65391
lfoot -7.03761 1.56244
ltoes -31.3469
37
root 16.6281 19.6804 20.7515 -153.052 -3.98116 177.586
lowerback -30.486 -2.10164 -6.98329
upperback -1.43744 -1.05488 0.0320971
thorax 14.4727 -1.21537 3.3252
lowerneck -5.5314 -0.907186 -1.00344
upperneck 2.43281 -1.24349 2.34796
head 1.72319 -0.58225 0.868084
rclavicle 1.26477e-014 3.65764e-014
rhumerus -38.1098 -21.1849 -76.0231
rradius 31.863
rwrist -1.7844
rhand -8.05824 -51.4767
rfingers 7.12502
rthumb 17.8528 -80.6772
lclavicle 1.26477e-014 3.65764e-014
lhumerus -31.8335 4.4889 80.4602
lradius 24.583
lwrist -3.45935
lhand -20.7899 -11.7839
lfingers 7.12502
lthumb 5.57722 18.1227
rfemur -23.1304 5.30066 20.1938
rtibia 5.5934
rfoot -18.7807 -4.29778
rtoes -18.6393
lfemur -25.0741 -7.87565 -21.7073
ltibia 8.73104
lfoot -7.52459 1.60175
ltoes -35.2759
38
root 16.6314 19.6796 20.7551 -153.019 -4.04657 177.568
lowerback -30.4451 -2.14505 -6.99827
upperback -1.46995 -1.11545 0.0360827
thorax 14.4229 -1.24273 3.31381
lowerneck -5.56256 -0.874755 -0.993021
upperneck 2.43057 -1.19829 2.29367
head 1.72647 -0.560513 0.85054
rclavicle 2.0773e-014 1.68967e-014
rhumerus -38.1077 -21.1469 -76.0479
rradius 31.8727
rwrist -1.76278
rhand -8.10015 -51.6239
rfingers 7.12502
rthumb 17.8125 -80.8281
lclavicle 2.0773e-014 1.68967e-014
lhumerus -31.8 4.5402 80.4251
lradius 24.4958
lwrist -3.50975
lhand -20.6198 -11.8675
lfingers 7.12502
lthumb 5.74146 18.0347
rfemur -23.2126 5.3651 20.1733
rtibia 5.67513
rfoot -18.3978 -4.43687
rtoes -20.1147
lfemur -25.15 -7.87368 -21.696
ltibia 8.74957
lfoot -7.06263 1.53216
ltoes -30.9232
39
root 16.6319 19.6809 20.7554 -153.118 -4.07799 177.57
lowerback -30.3627 -2.16504 -7.02324
upperback -1.44531 -1.13433 0.0626704
thorax 14.4183 -1.25066 3.35123
lowerneck -5.6661 -0.85909 -0.957144
upperneck 2.38645 -1.17655 2.22577
head 1.72914 -0.550667 0.823401
rclavicle -1.51573e-015 1.15295e-014
rhumerus -38.0782 -21.1475 -76.0143
rradius 31.8628
rwrist -1.75958
rhand -8.08882 -51.6643
rfingers 7.12502
rthumb 17.8234 -80.8675
lclavicle -1.51573e-015 1.15295e-014
lhumerus -31.7883 4.68757 80.405
lradius 24.4774
lwrist -3.66917
lhand -20.4185 -12.0635
lfingers 7.12502
lthumb 5.93579 17.8333
rfemur -23.1012 5.25763 20.2174
rtibia 5.68794
rfoot -17.63 -4.38391
rtoes -21.4895
lfemur -25.0278 -7.87497 -21.6949
ltibia 8.69078
lfoot -7.03527 1.48248
ltoes -30.6896
